/* XPM */
static char *_3125eba37e644998eca6d728bf23173si28Wf3gJvU7Niw5[] = {
/* columns rows colors chars-per-pixel */
"48 64 57 1 ",
"  c None",
". c #492E17",
"X c #50341D",
"o c #563922",
"O c #614024",
"+ c #634326",
"@ c #60452F",
"# c #764E27",
"$ c #77522F",
"% c #785028",
"& c #7B5229",
"* c #7E5429",
"= c #6B513D",
"- c #755234",
"; c #795332",
": c #84582B",
"> c #865A2C",
", c #815935",
"< c #835B35",
"1 c #8F6134",
"2 c #906234",
"3 c #9A6734",
"4 c #956638",
"5 c #92673C",
"6 c #96683E",
"7 c #986839",
"8 c #9D6C3D",
"9 c #9E6D3E",
"0 c #976D45",
"q c #9F744A",
"w c #806A59",
"e c #A77444",
"r c #A67647",
"t c #A87849",
"y c #AD7948",
"u c #AD7B4A",
"i c #AE7E4D",
"p c #8A7667",
"a c #B4804E",
"s c #B38251",
"d c #B98452",
"f c #B98755",
"g c #BE8C59",
"h c #BC8B5C",
"j c #958374",
"k c #C18E5B",
"l c #C5905D",
"z c #C49261",
"x c #C99461",
"c c #CC9865",
"v c #CE9A65",
"b c #D19C67",
"n c #D49F6A",
"m c #9F8F82",
"M c #AA9C90",
"N c #BFB4AC",
"B c #D4CDC7",
/* pixels */
"                     oooo                       ",
"                   oooooooo                     ",
"                 @ooooooooo                     ",
"                oooo;rrrooo                     ",
"        ooooooooooorrrrrooo                     ",
"      ooooooooooorrrrrroooo                     ",
"     ooooznnnnnnrrrrrrrooo                      ",
"     oo-nnnnnnnnrrrrrroooo                      ",
"    Moonnnnnnnnnrrrrrrooo                       ",
"     oonnnnnnnnnnrrrrooo                        ",
"     ooonnnnnnnnnrrrrooo                        ",
"      ooonnnnnnnnrrrooo                         ",
"      ooonnnnnnnnrrrooo                         ",
"       ooonnnnnnnnrrooo                         ",
"        ooonnnnnnnrrooo                         ",
"        ooonnn....6<..ooo                       ",
"         ooonn.aaa......oo                      ",
"         joon..aaaa.aaaa.o                      ",
"          o..a.5aaaa.aaa.o                      ",
"        wo.aaaa.aaaau.a..o                      ",
"        o.aaaaaa.aaaa...ooo                     ",
"        o.aaaa$...aaaa.noooo                    ",
"        oX.a...33..aaa.nnoooo                   ",
"         oo.q.333..aaaa.nnoooo                  ",
"        ooonn.333...aaa.nnnoooo                 ",
"        oonnn.33..n.aaaa.nnnnooo=               ",
"       ooonn..33..n..aaa.nnnnnoooo              ",
"      ooonnn.333.nnn.aaa.nnnnnnoooo             ",
"      oonnnn.333.nnn..aa.nnnnnnnoooo            ",
"     ooonnnn.333.nnnn....nnnnnnnnoooo           ",
"    ooonnnnn.333.nnnnnnnnnnnnnnnnncooo          ",
"    oonnnnnn.333.nnnnnn**nnnnnnnnnnnoooo        ",
"   ooonnnnnn..33.0***n***nnnnnnnnnnnnoooo       ",
"   oonnnnnnn..33#+x**i***nnnnnnnnnnnnnoooo      ",
"  Moonnnnnnnn.33.nn*********nnnnnnnnnnnoooo     ",
"  ooonnnnnnnnn..n*************nnnnnnnnnnooo     ",
"  oonnnnnnnnnnnn******n********nnnnnnnnnnooo    ",
" ooonnnnnnnnnnn*******n***n****nnnnnnnnnnnooo   ",
" ooonnnnnnnnnn****nf**n***n****nnnnnnnnnnnooo   ",
" oohnnnnnnnnnn****nn***g**n***tnnnnnnnnnnnnoo   ",
" oonnnyybnnnnn*****n***n***nnnnnnnnnnnnnnnnoom  ",
" ooyyyyyyyylnnb********n***nnnnnnnnnnnnnnnkooo  ",
"oooyyyyyyyyyynn:***********nnnnnnnnnnnnnnnuooo  ",
"ooouyyyyyyyyyycn*************nnnnnnnnnnnnbyooo  ",
"oooyyyyyyyyyyyyynnn*************nnnnnnnnnyyooo  ",
"oooyyyyyyyyyyyyyydnnn***n********nnnnnnnyyyooo  ",
"oooyyyyyyyyyyyyyyyynn***n*&:*****nnnnnnyyyy,oo  ",
"oooyyyyyyyyyyyyyyyyyy***b:&&b****tnnnnuyyyyooo  ",
" oouyyyyyyyyyyyy****e:**b:**n&:*&nnnnyyyyyuooo  ",
" ooyyyyyyyyyyyyy:&**ue**u&**b***:nnnyyyyyyyooo  ",
" ooyyyyyyyyyyyyy:&:&:y:*:e**k**:ayyyyyyyyyeooo  ",
" oooyyyyyyyyyyyye**&&&**&e*****&yyyyyyyyyy:oo   ",
" ooouyyyyyyyyyyyy>::****&:&:&&yyyyyyyyyyy::oo   ",
"  ooyyyyyyyyyyyyyyu8******&::uyyyyyyyyyy2:oooo  ",
"  ooyyyyyyyyyyyyyyyyyy:**e:&*yyyyyyyyyy::&o3ooo ",
"  oooyyyyyyyyyyyyyyyyyy&**>:2uyyyyyyyy:::o333ooo",
"  oooyyyyyy:::yyuyyyyyyyyyyyyyyyyyyyy:::o3333ooo",
" ooooyyy::::::::::::7yyyyyyyyyyyyyy:::oo33333ooo",
" oooyyyoo:::::::::::::::::yyyyu8:::::oooooooooo ",
"oooyyyyyooooo:::::::::::::::::::::&ooooooooooo@ ",
"ooouuyyyyuoooooooooO%::::::::::oooooooj  Bwo    ",
"oooooooooooooooooooooooooooooooooooo            ",
" ooooooooooN   pooooooooooooooooo               ",
"  oooooo              Boooo                     "
};
